<svg id="nodata_mark_image_m" xmlns="http://www.w3.org/2000/svg" xmlns:xlink="http://www.w3.org/1999/xlink" width="140" height="140" viewBox="0 0 140 140">
  <defs>
    <clipPath id="clip-path">
      <rect id="사각형_1234" data-name="사각형 1234" width="128" height="107.468" transform="translate(0 0)" fill="none"/>
    </clipPath>
  </defs>
  <rect id="사각형_946" data-name="사각형 946" width="140" height="140" fill="none"/>
  <g id="그룹_5159" data-name="그룹 5159" transform="translate(6 16)" clip-path="url(#clip-path)">
    <path id="패스_6564" data-name="패스 6564" d="M531.33,278.556l42.476,19.413a5.914,5.914,0,0,0,7.821-2.87l25.2-54.356a5.837,5.837,0,0,0-2.891-7.766l-42.476-19.413a5.914,5.914,0,0,0-7.821,2.87l-25.2,54.357a5.837,5.837,0,0,0,2.891,7.766" transform="translate(-480.061 -193.858)" fill="#fff"/>
    <path id="패스_6565" data-name="패스 6565" d="M569.307,294.373a6.593,6.593,0,0,1-1.977-.3.688.688,0,0,1-.452-.864.7.7,0,0,1,.87-.449,5.237,5.237,0,0,0,2.951.051.689.689,0,1,1,.371,1.327,6.635,6.635,0,0,1-1.763.239m-4.868-1.637a.7.7,0,0,1-.29-.063l-3.082-1.409a.687.687,0,0,1-.34-.914.7.7,0,0,1,.92-.338l3.082,1.409a.687.687,0,0,1,.34.914.694.694,0,0,1-.63.4m9.285-.334a.694.694,0,0,1-.46-.173.685.685,0,0,1-.059-.972,5.16,5.16,0,0,0,.832-1.268l.694-1.5a.7.7,0,0,1,.92-.338.687.687,0,0,1,.34.914l-.694,1.5a6.541,6.541,0,0,1-1.053,1.6.694.694,0,0,1-.52.232m-15.45-2.483a.694.694,0,0,1-.29-.063l-3.082-1.409a.687.687,0,0,1-.34-.914.7.7,0,0,1,.92-.338l3.082,1.409a.687.687,0,0,1,.34.914.694.694,0,0,1-.63.4m-6.165-2.817a.7.7,0,0,1-.289-.063l-3.082-1.409a.687.687,0,0,1-.34-.914.7.7,0,0,1,.92-.338l3.082,1.409a.686.686,0,0,1,.34.914.694.694,0,0,1-.631.4m24.669-.694a.7.7,0,0,1-.29-.063.687.687,0,0,1-.34-.914l1.419-3.06a.7.7,0,0,1,.92-.338.687.687,0,0,1,.34.914l-1.419,3.061a.694.694,0,0,1-.631.4m-30.834-2.124a.694.694,0,0,1-.29-.063l-3.082-1.409a.687.687,0,0,1-.34-.914.7.7,0,0,1,.92-.338l3.082,1.409a.687.687,0,0,1,.34.914.694.694,0,0,1-.63.4m-6.165-2.817a.694.694,0,0,1-.29-.063l-3.082-1.409a.687.687,0,0,1-.34-.914.7.7,0,0,1,.92-.338l3.082,1.409a.687.687,0,0,1,.34.914.694.694,0,0,1-.63.4m39.836-1.18a.7.7,0,0,1-.29-.063.687.687,0,0,1-.34-.914l1.419-3.06a.7.7,0,0,1,.92-.338.686.686,0,0,1,.34.914l-1.419,3.061a.694.694,0,0,1-.63.4m-46-1.638a.694.694,0,0,1-.29-.063l-3.082-1.409a.687.687,0,0,1-.34-.914.7.7,0,0,1,.92-.338l3.082,1.409a.687.687,0,0,1,.34.914.694.694,0,0,1-.63.4m-6.165-2.817a.694.694,0,0,1-.29-.063l-3.082-1.409-.017-.008a.684.684,0,0,1-.336-.913.7.7,0,0,1,.924-.335l.01,0,3.082,1.409a.686.686,0,0,1,.34.914.694.694,0,0,1-.63.4m55-1.666a.694.694,0,0,1-.29-.063.687.687,0,0,1-.34-.914l1.419-3.06a.7.7,0,0,1,.92-.338.687.687,0,0,1,.34.914l-1.419,3.06a.694.694,0,0,1-.63.4m-60.608-1.94a.7.7,0,0,1-.588-.322,6.519,6.519,0,0,1-1.015-3.491c0-.027,0-.054,0-.082a.691.691,0,0,1,.693-.68h.009a.691.691,0,0,1,.685.7c0,.021,0,.042,0,.064a5.15,5.15,0,0,0,.8,2.759.686.686,0,0,1-.218.95.694.694,0,0,1-.369.106m63.446-4.181a.7.7,0,0,1-.289-.063.686.686,0,0,1-.34-.914l1.419-3.061a.7.7,0,0,1,.92-.338.687.687,0,0,1,.34.914l-1.419,3.061a.694.694,0,0,1-.631.4m-63.426-2.224a.7.7,0,0,1-.29-.063.687.687,0,0,1-.34-.914l1.419-3.061a.7.7,0,0,1,.92-.338.687.687,0,0,1,.34.914l-1.419,3.06a.694.694,0,0,1-.631.4m66.264-3.9a.7.7,0,0,1-.29-.063.687.687,0,0,1-.34-.914l1.419-3.06a.7.7,0,0,1,.92-.338.687.687,0,0,1,.34.914l-1.419,3.061a.694.694,0,0,1-.631.4M524.7,259.7a.7.7,0,0,1-.29-.063.687.687,0,0,1-.34-.914l1.419-3.06a.7.7,0,0,1,.92-.338.687.687,0,0,1,.34.914l-1.419,3.061a.694.694,0,0,1-.631.4m66.264-3.9a.694.694,0,0,1-.29-.063.687.687,0,0,1-.34-.914l1.419-3.06a.7.7,0,0,1,.92-.338.686.686,0,0,1,.34.914L591.6,255.4a.694.694,0,0,1-.63.4m-63.426-2.224a.7.7,0,0,1-.29-.063.687.687,0,0,1-.34-.914l1.419-3.06a.7.7,0,0,1,.92-.338.687.687,0,0,1,.34.914l-1.419,3.06a.694.694,0,0,1-.63.4m66.264-3.9a.694.694,0,0,1-.29-.063.687.687,0,0,1-.34-.914l1.419-3.061a.7.7,0,0,1,.92-.338.687.687,0,0,1,.34.914l-1.419,3.061a.694.694,0,0,1-.63.4m-63.426-2.224a.694.694,0,0,1-.29-.063.686.686,0,0,1-.34-.914l1.419-3.061a.7.7,0,0,1,.92-.338.687.687,0,0,1,.34.914l-1.419,3.06a.694.694,0,0,1-.631.4m66.264-3.9a.7.7,0,0,1-.29-.063.687.687,0,0,1-.34-.914l1.419-3.061a.7.7,0,0,1,.92-.338.687.687,0,0,1,.34.914l-1.419,3.06a.694.694,0,0,1-.63.4m-63.426-2.224a.694.694,0,0,1-.29-.063.687.687,0,0,1-.34-.914L534,237.3a.7.7,0,0,1,.92-.338.687.687,0,0,1,.34.914l-1.419,3.061a.694.694,0,0,1-.631.4m66.263-3.9a.7.7,0,0,1-.29-.063.687.687,0,0,1-.34-.914l.385-.831a5.094,5.094,0,0,0,.477-2.1.691.691,0,0,1,.694-.681h.008a.691.691,0,0,1,.685.7,6.454,6.454,0,0,1-.6,2.656l-.385.831a.694.694,0,0,1-.631.4m-63.426-2.224a.7.7,0,0,1-.29-.063.687.687,0,0,1-.34-.914l1.419-3.061a.7.7,0,0,1,.92-.338.687.687,0,0,1,.34.914l-1.419,3.06a.694.694,0,0,1-.63.4m63.443-4.181a.694.694,0,0,1-.588-.322,5.17,5.17,0,0,0-2.219-1.932.687.687,0,0,1-.339-.914.7.7,0,0,1,.92-.337,6.551,6.551,0,0,1,2.812,2.448.686.686,0,0,1-.217.95.7.7,0,0,1-.369.106m-60.605-1.94a.7.7,0,0,1-.29-.063.687.687,0,0,1-.34-.914l1.419-3.061a.7.7,0,0,1,.92-.338.687.687,0,0,1,.34.914l-1.419,3.06a.694.694,0,0,1-.63.4m55.006-1.658a.7.7,0,0,1-.29-.063l-3.082-1.409a.687.687,0,0,1-.34-.914.7.7,0,0,1,.92-.338l3.082,1.409a.687.687,0,0,1,.34.914.694.694,0,0,1-.63.4m-6.165-2.817a.7.7,0,0,1-.29-.063l-3.082-1.409a.687.687,0,0,1-.34-.914.7.7,0,0,1,.92-.338l3.082,1.409a.687.687,0,0,1,.34.914.694.694,0,0,1-.631.4m-46-1.645a.7.7,0,0,1-.29-.063.687.687,0,0,1-.34-.914l1.419-3.061a.7.7,0,0,1,.92-.338.687.687,0,0,1,.34.914l-1.419,3.061a.694.694,0,0,1-.63.4m39.839-1.172a.7.7,0,0,1-.29-.063L578.2,220.33a.687.687,0,0,1-.34-.914.7.7,0,0,1,.92-.338l3.082,1.409a.687.687,0,0,1,.34.914.694.694,0,0,1-.631.4m-6.165-2.817a.7.7,0,0,1-.29-.063l-3.082-1.409a.687.687,0,0,1-.34-.914.7.7,0,0,1,.92-.338l3.082,1.409a.687.687,0,0,1,.34.914.694.694,0,0,1-.631.4m-30.837-2.131a.7.7,0,0,1-.289-.063.687.687,0,0,1-.34-.914l1.419-3.06a.7.7,0,0,1,.92-.338.687.687,0,0,1,.34.914l-1.419,3.06a.694.694,0,0,1-.631.4m24.672-.686a.7.7,0,0,1-.29-.063l-3.082-1.409a.687.687,0,0,1-.34-.914.7.7,0,0,1,.92-.338l3.082,1.409a.687.687,0,0,1,.34.914.694.694,0,0,1-.631.4m-6.165-2.817a.7.7,0,0,1-.29-.063l-3.082-1.409a.687.687,0,0,1-.34-.914.7.7,0,0,1,.92-.338l3.082,1.409a.687.687,0,0,1,.34.914.694.694,0,0,1-.63.4m-15.451-2.49a.694.694,0,0,1-.46-.174.685.685,0,0,1-.058-.972,6.583,6.583,0,0,1,3.175-1.962.689.689,0,1,1,.37,1.328,5.2,5.2,0,0,0-2.507,1.548.694.694,0,0,1-.519.232m9.286-.328a.7.7,0,0,1-.289-.063l-2.411-1.1a5.281,5.281,0,0,0-.608-.234.688.688,0,0,1-.451-.865.7.7,0,0,1,.871-.448,6.69,6.69,0,0,1,.769.3l2.411,1.1a.687.687,0,0,1,.34.914.694.694,0,0,1-.631.4" transform="translate(-473.1 -189.037)" fill="#e6e6e6"/>
    <path id="패스_6566" data-name="패스 6566" d="M83.688,222.087,41.212,241.5a5.914,5.914,0,0,1-7.821-2.87l-25.2-54.357a5.837,5.837,0,0,1,2.891-7.766l42.476-19.413a5.914,5.914,0,0,1,7.821,2.87l25.2,54.357a5.837,5.837,0,0,1-2.891,7.766" transform="translate(-6.957 -142.47)" fill="#fff"/>
    <path id="패스_6567" data-name="패스 6567" d="M31.792,237.905a6.638,6.638,0,0,1-1.764-.239.689.689,0,1,1,.371-1.327,5.235,5.235,0,0,0,2.951-.051.7.7,0,0,1,.871.449.688.688,0,0,1-.452.864,6.593,6.593,0,0,1-1.977.3m4.868-1.637a.694.694,0,0,1-.631-.4.687.687,0,0,1,.34-.914l3.082-1.409a.7.7,0,0,1,.92.338.687.687,0,0,1-.34.914L36.95,236.2a.7.7,0,0,1-.29.063m-9.285-.334a.694.694,0,0,1-.52-.232,6.542,6.542,0,0,1-1.053-1.6l-.694-1.5a.687.687,0,0,1,.34-.914.7.7,0,0,1,.92.338l.694,1.5a5.168,5.168,0,0,0,.832,1.268.685.685,0,0,1-.059.972.694.694,0,0,1-.46.173m15.45-2.483a.694.694,0,0,1-.631-.4.687.687,0,0,1,.34-.914l3.082-1.409a.7.7,0,0,1,.92.338.687.687,0,0,1-.34.913l-3.082,1.409a.694.694,0,0,1-.29.063m6.165-2.817a.694.694,0,0,1-.631-.4.687.687,0,0,1,.34-.914l3.082-1.409a.7.7,0,0,1,.92.338.687.687,0,0,1-.34.914l-3.082,1.409a.694.694,0,0,1-.29.063M24.32,229.94a.694.694,0,0,1-.631-.4l-1.419-3.061a.687.687,0,0,1,.34-.914.7.7,0,0,1,.92.338l1.419,3.061a.687.687,0,0,1-.34.913.7.7,0,0,1-.29.063m30.834-2.124a.694.694,0,0,1-.631-.4.687.687,0,0,1,.34-.914l3.082-1.409a.7.7,0,0,1,.92.338.687.687,0,0,1-.34.914l-3.082,1.409a.694.694,0,0,1-.29.063M61.319,225a.694.694,0,0,1-.631-.4.687.687,0,0,1,.34-.914l3.082-1.409a.7.7,0,0,1,.92.338.687.687,0,0,1-.34.914l-3.082,1.409a.7.7,0,0,1-.29.063m-39.836-1.18a.694.694,0,0,1-.631-.4l-1.419-3.061a.687.687,0,0,1,.34-.914.7.7,0,0,1,.92.338l1.419,3.06a.687.687,0,0,1-.34.914.7.7,0,0,1-.29.063m46-1.638a.694.694,0,0,1-.631-.4.687.687,0,0,1,.34-.914l3.082-1.409a.7.7,0,0,1,.92.338.687.687,0,0,1-.34.914l-3.082,1.409a.694.694,0,0,1-.29.063m6.165-2.818a.694.694,0,0,1-.631-.4.686.686,0,0,1,.34-.914l3.092-1.413a.7.7,0,0,1,.92.337.687.687,0,0,1-.339.914L73.938,219.3a.7.7,0,0,1-.29.063m-55-1.666a.694.694,0,0,1-.631-.4l-1.419-3.06a.687.687,0,0,1,.34-.914.7.7,0,0,1,.92.338l1.419,3.061a.687.687,0,0,1-.34.914.694.694,0,0,1-.29.063m60.608-1.94a.694.694,0,0,1-.369-.106.686.686,0,0,1-.218-.95,5.148,5.148,0,0,0,.8-2.758c0-.023,0-.043,0-.064a.691.691,0,0,1,.684-.7h.01a.691.691,0,0,1,.693.679c0,.029,0,.057,0,.086a6.515,6.515,0,0,1-1.015,3.489.694.694,0,0,1-.588.322m-63.446-4.181a.694.694,0,0,1-.631-.4l-1.419-3.06a.687.687,0,0,1,.34-.914.7.7,0,0,1,.92.338l1.419,3.061a.687.687,0,0,1-.34.914.694.694,0,0,1-.29.063m63.426-2.224a.694.694,0,0,1-.631-.4l-1.419-3.06a.687.687,0,0,1,.34-.914.7.7,0,0,1,.92.338l1.419,3.061a.687.687,0,0,1-.34.913.694.694,0,0,1-.29.063m-66.264-3.9a.694.694,0,0,1-.631-.4l-1.419-3.061a.687.687,0,0,1,.34-.913.7.7,0,0,1,.92.338l1.419,3.06a.687.687,0,0,1-.34.914.7.7,0,0,1-.29.063M76.4,203.232a.694.694,0,0,1-.631-.4l-1.419-3.061a.687.687,0,0,1,.34-.914.7.7,0,0,1,.92.338l1.419,3.061a.687.687,0,0,1-.34.914.7.7,0,0,1-.29.063m-66.264-3.9a.694.694,0,0,1-.631-.4l-1.419-3.06a.687.687,0,0,1,.34-.914.7.7,0,0,1,.92.338l1.419,3.061a.687.687,0,0,1-.34.914.694.694,0,0,1-.29.063m63.426-2.224a.694.694,0,0,1-.631-.4l-1.419-3.06a.687.687,0,0,1,.34-.914.7.7,0,0,1,.92.338l1.419,3.06a.687.687,0,0,1-.34.914.7.7,0,0,1-.29.063M7.3,193.214a.694.694,0,0,1-.631-.4l-1.419-3.061a.687.687,0,0,1,.34-.914.7.7,0,0,1,.92.338l1.419,3.06a.687.687,0,0,1-.34.914.7.7,0,0,1-.29.063m63.426-2.224a.694.694,0,0,1-.631-.4l-1.419-3.06a.687.687,0,0,1,.34-.914.7.7,0,0,1,.92.338l1.419,3.061a.687.687,0,0,1-.34.914.7.7,0,0,1-.29.063m-66.264-3.9a.694.694,0,0,1-.631-.4l-1.419-3.06a.687.687,0,0,1,.34-.914.7.7,0,0,1,.92.338l1.419,3.06a.687.687,0,0,1-.34.914.7.7,0,0,1-.29.063m63.426-2.224a.694.694,0,0,1-.631-.4l-1.419-3.06a.687.687,0,0,1,.34-.914.7.7,0,0,1,.92.338l1.419,3.06a.687.687,0,0,1-.34.914.7.7,0,0,1-.29.063m-66.264-3.9a.694.694,0,0,1-.631-.4L.6,179.74a6.457,6.457,0,0,1-.6-2.656.694.694,0,0,1,1.387-.016,5.1,5.1,0,0,0,.478,2.1L2.25,180a.687.687,0,0,1-.34.914.7.7,0,0,1-.29.063m63.426-2.224a.694.694,0,0,1-.631-.4L63,175.287a.687.687,0,0,1,.34-.914.7.7,0,0,1,.92.338l1.419,3.061a.687.687,0,0,1-.34.914.7.7,0,0,1-.29.063M1.6,174.568a.694.694,0,0,1-.369-.106.686.686,0,0,1-.217-.95,6.552,6.552,0,0,1,2.812-2.448.7.7,0,0,1,.92.337.687.687,0,0,1-.339.914,5.17,5.17,0,0,0-2.219,1.932.694.694,0,0,1-.588.322m60.605-1.94a.694.694,0,0,1-.631-.4l-1.419-3.061a.687.687,0,0,1,.34-.914.7.7,0,0,1,.92.338l1.419,3.061a.687.687,0,0,1-.34.914.7.7,0,0,1-.29.063M7.2,170.969a.694.694,0,0,1-.631-.4.687.687,0,0,1,.34-.914l3.082-1.409a.7.7,0,0,1,.92.338.687.687,0,0,1-.34.914l-3.082,1.409a.7.7,0,0,1-.29.063m6.165-2.817a.694.694,0,0,1-.631-.4.687.687,0,0,1,.34-.914l3.082-1.409a.7.7,0,0,1,.92.338.687.687,0,0,1-.34.914l-3.082,1.409a.7.7,0,0,1-.29.063m46-1.645a.694.694,0,0,1-.631-.4l-1.419-3.06a.687.687,0,0,1,.34-.914.7.7,0,0,1,.92.338L60,165.53a.687.687,0,0,1-.34.914.7.7,0,0,1-.29.063m-39.839-1.172a.694.694,0,0,1-.631-.4.687.687,0,0,1,.34-.914l3.082-1.409a.7.7,0,0,1,.92.338.687.687,0,0,1-.34.914l-3.082,1.409a.7.7,0,0,1-.29.063m6.165-2.817a.694.694,0,0,1-.631-.4.687.687,0,0,1,.34-.914l3.082-1.409a.7.7,0,0,1,.92.338.687.687,0,0,1-.34.914l-3.082,1.409a.7.7,0,0,1-.29.063m30.837-2.131a.694.694,0,0,1-.631-.4l-1.419-3.061a.687.687,0,0,1,.34-.914.7.7,0,0,1,.92.338l1.419,3.061a.687.687,0,0,1-.34.914.7.7,0,0,1-.29.063M31.861,159.7a.694.694,0,0,1-.631-.4.687.687,0,0,1,.34-.914l3.082-1.409a.7.7,0,0,1,.92.338.687.687,0,0,1-.34.914l-3.082,1.409a.7.7,0,0,1-.29.063m6.165-2.817a.694.694,0,0,1-.631-.4.687.687,0,0,1,.34-.914l3.082-1.409a.7.7,0,0,1,.92.338.687.687,0,0,1-.34.914l-3.082,1.409a.7.7,0,0,1-.29.063m15.451-2.49a.694.694,0,0,1-.519-.232,5.2,5.2,0,0,0-2.507-1.548.689.689,0,1,1,.37-1.328A6.584,6.584,0,0,1,54,153.246a.685.685,0,0,1-.058.972.694.694,0,0,1-.46.174m-9.286-.327a.694.694,0,0,1-.631-.4.687.687,0,0,1,.34-.914l2.411-1.1a6.721,6.721,0,0,1,.769-.3.7.7,0,0,1,.871.448.688.688,0,0,1-.451.865,5.3,5.3,0,0,0-.608.234L44.48,154a.7.7,0,0,1-.29.063" transform="translate(0 -137.65)" fill="#e6e6e6"/>
    <path id="패스_6568" data-name="패스 6568" d="M445.566,79.2h-46.76a5.875,5.875,0,0,1-5.9-5.854V13.507a5.875,5.875,0,0,1,5.9-5.854h46.76a5.875,5.875,0,0,1,5.9,5.854V73.346a5.875,5.875,0,0,1-5.9,5.854" transform="translate(-357.305 -6.964)" fill="#fff"/>
    <path id="패스_6569" data-name="패스 6569" d="M438.622,72.922h-3.409a.689.689,0,1,1,0-1.377h3.409a.689.689,0,1,1,0,1.377m-6.8,0h-3.393a.689.689,0,1,1,0-1.377h3.393a.689.689,0,1,1,0,1.377m-6.786,0H421.64a.689.689,0,1,1,0-1.377h3.393a.689.689,0,1,1,0,1.377m-6.786,0h-3.393a.689.689,0,1,1,0-1.377h3.393a.689.689,0,1,1,0,1.377m-6.786,0h-3.393a.689.689,0,1,1,0-1.377h3.393a.689.689,0,1,1,0,1.377m-6.786,0h-3.393a.689.689,0,1,1,0-1.377h3.393a.689.689,0,1,1,0,1.377m-6.786,0h-3.393a.689.689,0,1,1,0-1.377h3.393a.689.689,0,1,1,0,1.377m-6.783-.046a.7.7,0,0,1-.087-.005,6.579,6.579,0,0,1-3.424-1.494.685.685,0,0,1-.082-.971.7.7,0,0,1,.978-.081,5.192,5.192,0,0,0,2.7,1.179.688.688,0,0,1-.086,1.372m50.724-.9a.694.694,0,0,1-.581-.312.686.686,0,0,1,.2-.953,5.18,5.18,0,0,0,1.915-2.233.7.7,0,0,1,.916-.35.687.687,0,0,1,.352.909,6.557,6.557,0,0,1-2.424,2.827.694.694,0,0,1-.379.112M386.2,68.765a.693.693,0,0,1-.664-.49,6.5,6.5,0,0,1-.281-1.9V64.732a.694.694,0,0,1,1.387,0v1.647a5.138,5.138,0,0,0,.222,1.5.688.688,0,0,1-.463.859.7.7,0,0,1-.2.03m58.3-2.622a.691.691,0,0,1-.694-.689V62.086a.694.694,0,0,1,1.387,0v3.369a.691.691,0,0,1-.694.689M385.95,62.052a.691.691,0,0,1-.694-.689V57.994a.694.694,0,0,1,1.387,0v3.369a.691.691,0,0,1-.694.689M444.5,59.405a.691.691,0,0,1-.694-.689V55.348a.694.694,0,0,1,1.387,0v3.369a.691.691,0,0,1-.694.689M385.95,55.314a.691.691,0,0,1-.694-.689V51.256a.694.694,0,0,1,1.387,0v3.369a.691.691,0,0,1-.694.689M444.5,52.667a.691.691,0,0,1-.694-.689V48.609a.694.694,0,0,1,1.387,0v3.369a.691.691,0,0,1-.694.689M385.95,48.575a.691.691,0,0,1-.694-.689V44.518a.694.694,0,0,1,1.387,0v3.369a.691.691,0,0,1-.694.689M444.5,45.929a.691.691,0,0,1-.694-.689V41.871a.694.694,0,0,1,1.387,0V45.24a.691.691,0,0,1-.694.689M385.95,41.837a.691.691,0,0,1-.694-.689V37.779a.694.694,0,0,1,1.387,0v3.369a.691.691,0,0,1-.694.689M444.5,39.191a.691.691,0,0,1-.694-.689V35.133a.694.694,0,0,1,1.387,0V38.5a.691.691,0,0,1-.694.689M385.95,35.1a.691.691,0,0,1-.694-.689V31.041a.694.694,0,0,1,1.387,0V34.41a.691.691,0,0,1-.694.689M444.5,32.453a.691.691,0,0,1-.694-.689V28.395a.694.694,0,0,1,1.387,0v3.369a.691.691,0,0,1-.694.689M385.95,28.361a.691.691,0,0,1-.694-.689V24.3a.694.694,0,0,1,1.387,0v3.369a.691.691,0,0,1-.694.689M444.5,25.714a.691.691,0,0,1-.694-.689V21.656a.694.694,0,0,1,1.387,0v3.369a.691.691,0,0,1-.694.689M385.95,21.622a.691.691,0,0,1-.694-.689V17.565a.694.694,0,0,1,1.387,0v3.369a.691.691,0,0,1-.694.689M444.5,18.976a.691.691,0,0,1-.694-.689V14.918a.694.694,0,0,1,1.387,0v3.369a.691.691,0,0,1-.694.689M385.95,14.884a.691.691,0,0,1-.694-.689V10.826a.694.694,0,0,1,1.387,0V14.2a.691.691,0,0,1-.694.689M444.5,12.238a.691.691,0,0,1-.694-.689V8.18a.694.694,0,0,1,1.387,0v3.369a.691.691,0,0,1-.694.689M385.95,8.146a.691.691,0,0,1-.694-.689V6.541a6.455,6.455,0,0,1,.568-2.662.7.7,0,0,1,.916-.349.687.687,0,0,1,.351.91,5.1,5.1,0,0,0-.448,2.1v.916a.691.691,0,0,1-.694.689m58.3-2.621a.693.693,0,0,1-.663-.489,5.154,5.154,0,0,0-1.627-2.446.685.685,0,0,1-.083-.971.7.7,0,0,1,.977-.082,6.527,6.527,0,0,1,2.06,3.1.688.688,0,0,1-.462.859.7.7,0,0,1-.2.03m-55.616-3.2a.7.7,0,0,1-.582-.313.686.686,0,0,1,.2-.953A6.6,6.6,0,0,1,391.837,0h0a.689.689,0,1,1,0,1.377,5.21,5.21,0,0,0-2.829.834.693.693,0,0,1-.378.112m50.709-.9a.7.7,0,0,1-.086-.005,5.316,5.316,0,0,0-.649-.04h-2.657a.689.689,0,1,1,0-1.378h2.657a6.728,6.728,0,0,1,.82.05.689.689,0,0,1-.085,1.372m-6.785-.045h-3.393a.689.689,0,1,1,0-1.378h3.393a.689.689,0,1,1,0,1.378m-6.786,0h-3.393a.689.689,0,1,1,0-1.378h3.393a.689.689,0,1,1,0,1.378m-6.786,0H415.59a.689.689,0,1,1,0-1.378h3.393a.689.689,0,1,1,0,1.378m-6.786,0H408.8A.689.689,0,1,1,408.8,0H412.2a.689.689,0,1,1,0,1.378m-6.786,0h-3.393a.689.689,0,1,1,0-1.378h3.393a.689.689,0,1,1,0,1.378m-6.786,0h-3.393a.689.689,0,1,1,0-1.378h3.393a.689.689,0,1,1,0,1.378" transform="translate(-350.345 0.002)" fill="#e6e6e6"/>
    <line id="선_46" data-name="선 46" x2="24.748" y2="24.573" transform="translate(52.486 13.555)" fill="#fff"/>
    <path id="패스_6570" data-name="패스 6570" d="M596.985,168.949a.694.694,0,0,1-.491-.2l-24.748-24.573a.685.685,0,0,1,0-.974.7.7,0,0,1,.981,0l24.748,24.573a.685.685,0,0,1,0,.974.694.694,0,0,1-.49.2" transform="translate(-519.751 -130.132)" fill="#f2f2f2"/>
    <line id="선_47" data-name="선 47" x1="24.748" y2="24.573" transform="translate(52.486 13.555)" fill="#fff"/>
    <path id="패스_6571" data-name="패스 6571" d="M572.237,168.949a.7.7,0,0,1-.491-.2.685.685,0,0,1,0-.974L596.495,143.2a.7.7,0,0,1,.981,0,.685.685,0,0,1,0,.974l-24.748,24.573a.694.694,0,0,1-.49.2" transform="translate(-519.751 -130.132)" fill="#f2f2f2"/>
    <path id="패스_6572" data-name="패스 6572" d="M1067.046,809.695l.477.564c-.063.064-.126.128-.191.191q-.639.634-1.346,1.223t-1.446,1.106l-.336.229c-.038.025-.075.05-.114.075l-.459-.544-.262-.31-.261-.309.336-.229q.742-.521,1.445-1.106t1.346-1.223c.1-.1.193-.192.286-.289l.264.312Z" transform="translate(-966.771 -736.276)" fill="#e6e6e6"/>
    <path id="패스_6573" data-name="패스 6573" d="M1122.427,875.835l-.543.452-2.871,2.393-1.768-2.09-.26-.309-.261-.309-2.535-3,.11-.078c.11-.077.221-.156.33-.235q.73-.532,1.436-1.117t1.357-1.212q.1-.092.194-.187l2.522,2.985.259.309.262.307,1.311,1.552Z" transform="translate(-1013.224 -791.852)" fill="#e6e6e6"/>
    <path id="패스_6574" data-name="패스 6574" d="M1143.423,918.791l-15.778-18.67a1.549,1.549,0,0,1,.193-2.193l5.514-4.594a1.575,1.575,0,0,1,2.208.192l15.778,18.67a3.626,3.626,0,0,1-.452,5.133l-2.293,1.911a3.687,3.687,0,0,1-5.17-.449" transform="translate(-1025.127 -812.625)" fill="#b2b2b2"/>
    <path id="패스_6575" data-name="패스 6575" d="M1081.631,827.282c-.064.064-.129.126-.194.187q-.654.624-1.357,1.212t-1.436,1.117c-.109.078-.22.158-.33.235l-.11.078-1.329-1.572-.261-.309-.262-.31-2.4-2.838c.038-.024.076-.05.113-.075l.336-.229q.742-.521,1.445-1.106t1.346-1.223c.065-.064.128-.127.191-.191l2.382,2.817.261.31.263.31Z" transform="translate(-976.633 -748.275)" fill="#b2b2b2"/>
    <path id="패스_6576" data-name="패스 6576" d="M683.536,359.926a26.976,26.976,0,0,0-37.82-3.286,26.523,26.523,0,0,0-3.308,37.552,26.981,26.981,0,0,0,35.72,4.869c.112-.076.224-.152.334-.231s.221-.157.33-.235q.731-.532,1.437-1.118t1.356-1.211c.1-.092.2-.185.291-.282s.192-.189.287-.286a26.515,26.515,0,0,0,1.374-35.772m-34.193,1.006a21.331,21.331,0,0,1,29.87,2.6,20.97,20.97,0,0,1-.7,27.851c-.092.1-.185.2-.281.293s-.188.194-.285.289q-.639.634-1.346,1.223t-1.445,1.106l-.336.229c-.113.076-.227.15-.34.224a21.1,21.1,0,0,1-25.135-33.811" transform="translate(-578.482 -318.876)" fill="#e6e6e6"/>
    <path id="패스_6577" data-name="패스 6577" d="M732.1,415.881a21.712,21.712,0,0,0-30.439-2.644A21.348,21.348,0,0,0,699,443.461a21.718,21.718,0,0,0,28.32,4.205c.115-.074.227-.149.34-.225s.224-.151.334-.231q.74-.517,1.447-1.1c.47-.391.919-.8,1.348-1.221.1-.1.192-.192.287-.288l.281-.293a21.344,21.344,0,0,0,.747-28.422m-1.011,28.11c-.092.1-.185.2-.281.293s-.188.194-.285.289q-.639.634-1.346,1.223T727.73,446.9l-.336.229-.34.223a21,21,0,1,1,4.033-3.364" transform="translate(-631.057 -371.488)" fill="#e6e6e6"/>
    <path id="패스_6578" data-name="패스 6578" d="M735.249,448.155c-.092.1-.185.2-.281.293s-.188.194-.285.289q-.639.634-1.346,1.223t-1.445,1.106l-.336.229-.34.224a21,21,0,1,1,4.033-3.364" transform="translate(-635.219 -375.651)" fill="#fff"/>
    <path id="패스_6579" data-name="패스 6579" d="M1210.823,941.714a.709.709,0,0,1-.536-.243l-12.851-14.737a.7.7,0,0,1,.072-.993.713.713,0,0,1,1,.071l12.851,14.737a.7.7,0,0,1-.072.993.71.71,0,0,1-.464.172" transform="translate(-1088.769 -842.291)" fill="#fff"/>
    <path id="패스_6580" data-name="패스 6580" d="M712.646,378.651a.518.518,0,0,1-.319-.11.512.512,0,0,1-.088-.723,25.015,25.015,0,0,1,5.911-5.416,25.374,25.374,0,0,1,23.317-2.379.513.513,0,0,1,.289.669.52.52,0,0,1-.674.287,24.417,24.417,0,0,0-28.026,7.474.519.519,0,0,1-.408.2" transform="translate(-647.596 -335.087)" fill="#fff"/>
    <path id="패스_6581" data-name="패스 6581" d="M674.137,502.567a.52.52,0,0,1-.193-.037.514.514,0,0,1-.289-.669,25.22,25.22,0,0,1,1.951-3.851.52.52,0,0,1,.713-.168.513.513,0,0,1,.17.708,24.176,24.176,0,0,0-1.871,3.694.518.518,0,0,1-.481.324" transform="translate(-612.576 -452.978)" fill="#fff"/>
  </g>
</svg>
