<svg width="187" height="64" viewBox="0 0 187 64" fill="none" xmlns="http://www.w3.org/2000/svg">
<path fill-rule="evenodd" clip-rule="evenodd" d="M64.6538 0H78.5V20.259H88.1923V0H102.038V64H64.6538V0ZM88.1923 34.0719H78.5V50.187H88.1923V34.0719Z" fill="white"/>
<path d="M36.2692 40.518H22.4231V50.187H0.5V64H58.1923V50.187H36.2692V40.518Z" fill="white"/>
<path d="M122.346 0H108.5V64H122.346V0Z" fill="white"/>
<path d="M186.5 0V64H172.654V13.813H149.115V0H186.5Z" fill="white"/>
<path d="M142.654 0H128.808V64H142.654V34.0719H152.346V64H166.192V20.259H142.654V0Z" fill="white"/>
<path fill-rule="evenodd" clip-rule="evenodd" d="M41.1154 13.813H17.5769C15.7926 13.813 14.3462 15.2559 14.3462 17.036C14.3462 18.816 15.7926 20.259 17.5769 20.259H41.1154C42.8997 20.259 44.3462 18.816 44.3462 17.036C44.3462 15.2559 42.8997 13.813 41.1154 13.813ZM17.5769 0C8.1456 0 0.5 7.62726 0.5 17.036C0.5 26.4447 8.1456 34.0719 17.5769 34.0719H41.1154C50.5467 34.0719 58.1923 26.4447 58.1923 17.036C58.1923 7.62726 50.5467 0 41.1154 0H17.5769Z" fill="white"/>
</svg>
