<svg width="32" height="32" viewBox="0 0 32 32" fill="none" xmlns="http://www.w3.org/2000/svg">
<path fill-rule="evenodd" clip-rule="evenodd" d="M5.33341 25.3335L26.0001 25.3335C26.7365 25.3335 27.3334 25.9304 27.3334 26.6668C27.3334 27.4032 26.7365 28.0002 26.0001 28.0002L4.9229 28.0002C4.79279 28.0002 4.69732 27.8779 4.72887 27.7517L5.33341 25.3335Z" fill="#EEEEEE"/>
<path d="M17.5689 9.16622C17.9324 8.80268 18.5219 8.80268 18.8855 9.16622L22.8352 13.1157C23.1988 13.4792 23.1988 14.0686 22.8352 14.4322L10.527 26.7395C10.397 26.8694 10.2315 26.958 10.0513 26.994L5.11406 27.9814C4.46265 28.1117 3.88831 27.5374 4.0186 26.886L5.00603 21.9492C5.04208 21.769 5.13067 21.6035 5.26063 21.4735L17.5689 9.16622Z" fill="#9E9E9E"/>
<path d="M23.7776 4.27265C23.414 3.90912 22.8246 3.90912 22.461 4.27265L19.8278 6.90562C19.4643 7.26916 19.4643 7.85857 19.8278 8.22211L23.7776 12.1716C24.1411 12.5351 24.7306 12.5351 25.0942 12.1716L27.7273 9.53859C28.0909 9.17506 28.0909 8.58565 27.7273 8.22211L23.7776 4.27265Z" fill="#9E9E9E"/>
</svg>
