<svg width="32" height="32" viewBox="0 0 32 32" fill="none" xmlns="http://www.w3.org/2000/svg">
<path d="M12.3334 28H7.66675C7.11446 28 6.66675 27.5523 6.66675 27V13.9137C6.66675 13.5548 6.85903 13.2235 7.17061 13.0454L15.5039 8.28351C15.8114 8.10783 16.1888 8.10783 16.4962 8.28351L24.8296 13.0454C25.1411 13.2235 25.3334 13.5548 25.3334 13.9137V27C25.3334 27.5523 24.8857 28 24.3334 28H19.6667C19.1145 28 18.6667 27.5523 18.6667 27V20.2821C18.6667 19.7298 18.219 19.2821 17.6667 19.2821H14.3334C13.7811 19.2821 13.3334 19.7298 13.3334 20.2821V27C13.3334 27.5523 12.8857 28 12.3334 28Z" fill="#C7CDFC"/>
<path d="M4.51436 10.3809L15.5144 4.2698C15.8164 4.10201 16.1836 4.10201 16.4856 4.2698L27.4856 10.3809C27.8031 10.5573 28 10.8919 28 11.2551V13.6338C28 14.3963 27.1809 14.8783 26.5144 14.508L16.4856 8.93647C16.1836 8.76868 15.8164 8.76868 15.5144 8.93647L5.48564 14.508C4.81911 14.8783 4 14.3963 4 13.6338V11.2551C4 10.8919 4.19689 10.5573 4.51436 10.3809Z" fill="#1155F3"/>
</svg>
