<svg width="32" height="32" viewBox="0 0 32 32" fill="none" xmlns="http://www.w3.org/2000/svg">
<path d="M9.33342 5.3335H4.66675C3.56218 5.3335 2.66675 6.22893 2.66675 7.3335V24.6668C2.66675 25.7714 3.56218 26.6668 4.66675 26.6668H9.33342V23.0002C9.33342 22.2638 9.93037 21.6668 10.6667 21.6668V19.6668C9.93037 19.6668 9.33342 19.0699 9.33342 18.3335V13.6668C9.33342 12.9304 9.93037 12.3335 10.6667 12.3335V10.3335C9.93037 10.3335 9.33342 9.73654 9.33342 9.00016V5.3335Z" fill="#9E9E9E"/>
<path d="M10.6667 10.3335V12.3335C11.4031 12.3335 12.0001 12.9304 12.0001 13.6668V18.3335C12.0001 19.0699 11.4031 19.6668 10.6667 19.6668V21.6668C11.4031 21.6668 12.0001 22.2638 12.0001 23.0002V26.6668H27.3334C28.438 26.6668 29.3334 25.7714 29.3334 24.6668V7.3335C29.3334 6.22893 28.438 5.3335 27.3334 5.3335H12.0001V9.00016C12.0001 9.73654 11.4031 10.3335 10.6667 10.3335Z" fill="#EEEEEE"/>
</svg>
