<svg width="60" height="60" viewBox="0 0 60 60" fill="none" xmlns="http://www.w3.org/2000/svg">
<rect width="60" height="60" rx="30" fill="white"/>
<rect x="19.3333" y="18" width="21.3333" height="25.3333" rx="2" fill="#FFF8E1"/>
<rect x="24.6667" y="16.6665" width="10.6667" height="4" rx="1" fill="#FF6D00"/>
<path fill-rule="evenodd" clip-rule="evenodd" d="M36.2343 26.3505C36.7772 26.8481 36.8138 27.6915 36.3162 28.2343L28.9829 36.2343C28.723 36.5179 28.3532 36.6754 27.9686 36.6663C27.584 36.6572 27.222 36.4825 26.9757 36.1869L23.6424 32.1869C23.171 31.6212 23.2474 30.7805 23.8131 30.309C24.3788 29.8376 25.2196 29.9141 25.691 30.4798L28.0479 33.308L34.3505 26.4324C34.8481 25.8895 35.6915 25.8529 36.2343 26.3505Z" fill="#FF6D00"/>
</svg>
