<svg width="16" height="16" viewBox="0 0 16 16" fill="#BDBDBD" xmlns="http://www.w3.org/2000/svg">
<path d="M2.66666 2.00016C2.66666 1.63197 2.96513 1.3335 3.33332 1.3335H12.6667C13.0348 1.3335 13.3333 1.63197 13.3333 2.00016V13.5881C13.3333 14.0837 12.8118 14.4061 12.3685 14.1844L10.9648 13.4826C10.7771 13.3887 10.5562 13.3887 10.3685 13.4826L8.29813 14.5178C8.11045 14.6116 7.88953 14.6116 7.70185 14.5178L5.63147 13.4826C5.44378 13.3887 5.22287 13.3887 5.03518 13.4826L3.63147 14.1844C3.1882 14.4061 2.66666 14.0837 2.66666 13.5881V2.00016Z" fill="#BDBDBD"/>
<path fill-rule="evenodd" clip-rule="evenodd" d="M4.66666 4.00016C4.66666 3.63197 4.96513 3.3335 5.33332 3.3335H10.6667C11.0348 3.3335 11.3333 3.63197 11.3333 4.00016C11.3333 4.36835 11.0348 4.66683 10.6667 4.66683H5.33332C4.96513 4.66683 4.66666 4.36835 4.66666 4.00016Z" fill="#ECEFF1"/>
<path fill-rule="evenodd" clip-rule="evenodd" d="M4.66666 7.33317C4.66666 6.96498 4.96513 6.6665 5.33332 6.6665H10.6667C11.0348 6.6665 11.3333 6.96498 11.3333 7.33317C11.3333 7.70136 11.0348 7.99984 10.6667 7.99984H5.33332C4.96513 7.99984 4.66666 7.70136 4.66666 7.33317Z" fill="#ECEFF1"/>
<path fill-rule="evenodd" clip-rule="evenodd" d="M4.66666 10.6667C4.66666 10.2985 4.96513 10 5.33332 10H7.99999C8.36818 10 8.66666 10.2985 8.66666 10.6667C8.66666 11.0349 8.36818 11.3333 7.99999 11.3333H5.33332C4.96513 11.3333 4.66666 11.0349 4.66666 10.6667Z" fill="#ECEFF1"/>
</svg>
