<svg xmlns="http://www.w3.org/2000/svg" width="44" height="44" viewBox="0 0 44 44">
  <g id="ic" transform="translate(6 10.029)">
    <g id="그룹_5090" data-name="그룹 5090" transform="translate(0)">
      <g id="그룹_5087" data-name="그룹 5087" transform="translate(0 6.068)">
        <rect id="BG" width="44" height="44" rx="22" transform="translate(-6 -16.097)" fill="#e53873"/>
      </g>
      <g id="그룹_5089" data-name="그룹 5089" transform="translate(2.967)">
        <path id="패스_6538" data-name="패스 6538" d="M21.767,22.592H7.433A1.647,1.647,0,0,0,6,20.794v-6c.792,0,1.433-.6,1.433-1.8H21.767c0,1.2.642,1.8,1.433,1.8v6A1.647,1.647,0,0,0,21.767,22.592Z" transform="translate(-1.667 -4.329)" fill="none" stroke="#fff" stroke-width="1.4"/>
        <line id="선_35" data-name="선 35" x2="2.712" transform="translate(6.233 13.328)" fill="none" stroke="#fff" stroke-width="1.4"/>
        <line id="선_36" data-name="선 36" x2="2.912" transform="translate(16.833 13.328)" fill="none" stroke="#fff" stroke-width="1.4"/>
        <ellipse id="타원_347" data-name="타원 347" cx="2.219" cy="2.219" rx="2.219" ry="2.219" transform="translate(10.714 11.017)" fill="none" stroke="#fff" stroke-width="1.4"/>
      </g>
      <rect id="Path" width="28" height="28" transform="translate(2 -2.029)" fill="none"/>
      <rect id="사각형_1221" data-name="사각형 1221" width="24.249" height="16.703" transform="translate(3.731 5.225)" fill="none" stroke="#fff" stroke-width="1.4"/>
      <line id="선_42" data-name="선 42" x2="12.469" transform="translate(9.389 0.971)" fill="none" stroke="#fff" stroke-width="1.4"/>
      <line id="선_43" data-name="선 43" x1="17.43" transform="translate(7.076 3.035)" fill="none" stroke="#fff" stroke-width="1.4"/>
    </g>
  </g>
</svg>
