<svg xmlns="http://www.w3.org/2000/svg" width="44" height="44" viewBox="0 0 44 44">
  <g id="ic" transform="translate(18.279 25.935)">
    <rect id="BG" width="44" height="44" rx="22" transform="translate(-18.279 -25.935)" fill="#f99959"/>
    <g id="icon">
      <rect id="Path" width="28" height="28" transform="translate(-10.279 -17.935)" fill="none"/>
      <path id="패스_6526" data-name="패스 6526" d="M15.832,26.916V25.749c0-.76-1.6-1.749-2.916-1.749S10,24.989,10,25.749v1.166" transform="translate(-13.524 -27.145)" fill="none" stroke="#fff" stroke-width="1.4"/>
      <path id="패스_6527" data-name="패스 6527" d="M13.749,17A1.668,1.668,0,0,0,12,18.47v1.142a1.668,1.668,0,0,0,1.749,1.47,1.668,1.668,0,0,0,1.749-1.47V18.47A1.668,1.668,0,0,0,13.749,17Z" transform="translate(-14.517 -24.228)" fill="none" stroke="#fff" stroke-width="1.4"/>
      <line id="선_19" data-name="선 19" x2="7.43" transform="translate(4.221 -1.059)" fill="none" stroke="#fff" stroke-width="1.4"/>
      <line id="선_40" data-name="선 40" x2="7.43" transform="translate(4.221 -3.145)" fill="none" stroke="#fff" stroke-width="1.4"/>
      <line id="선_41" data-name="선 41" x2="7.43" transform="translate(4.221 -5.145)" fill="none" stroke="#fff" stroke-width="1.4"/>
      <line id="선_20" data-name="선 20" x2="16.834" transform="translate(-4.872 1.885)" fill="none" stroke="#fff" stroke-width="1.4"/>
      <rect id="사각형_1192" data-name="사각형 1192" width="24.249" height="16.703" transform="translate(-8.548 -10.681)" fill="none" stroke="#fff" stroke-width="1.4"/>
      <line id="선_33" data-name="선 33" x2="12.469" transform="translate(-2.89 -14.935)" fill="none" stroke="#fff" stroke-width="1.4"/>
      <line id="선_34" data-name="선 34" x1="17.43" transform="translate(-5.203 -12.871)" fill="none" stroke="#fff" stroke-width="1.4"/>
    </g>
  </g>
</svg>
