<svg id="google_w" xmlns="http://www.w3.org/2000/svg" width="18" height="18" viewBox="0 0 18 18">
  <rect id="사각형_1129" data-name="사각형 1129" width="18" height="18" fill="none"/>
  <path id="패스_5913" data-name="패스 5913" d="M143.424,129h-7.618v3.129h4.353a3.72,3.72,0,0,1-1.614,2.441,4.875,4.875,0,1,1-2.739-8.971,4.369,4.369,0,0,1,3.092,1.21l2.32-2.32a7.774,7.774,0,0,0-5.412-2.107,8.089,8.089,0,1,0,0,16.178,7.722,7.722,0,0,0,5.353-1.96,7.889,7.889,0,0,0,2.412-5.945,9.283,9.283,0,0,0-.147-1.655" transform="translate(-126.46 -121.47)" fill="#fff" fill-rule="evenodd"/>
</svg>
