<svg id="apple_w" xmlns="http://www.w3.org/2000/svg" xmlns:xlink="http://www.w3.org/1999/xlink" width="18" height="18" viewBox="0 0 18 18">
  <defs>
    <clipPath id="clip-path">
      <rect id="사각형_1136" data-name="사각형 1136" width="18" height="18" fill="none"/>
    </clipPath>
  </defs>
  <g id="apple_w-2" data-name="apple_w" clip-path="url(#clip-path)">
    <path id="패스_5918" data-name="패스 5918" d="M11.793,9.213a3.833,3.833,0,0,0,2.327,3.509,9.49,9.49,0,0,1-1.2,2.466c-.723,1.056-1.473,2.109-2.655,2.131C9.1,17.34,8.731,16.63,7.4,16.63s-1.742.667-2.841.71c-1.141.043-2.009-1.142-2.738-2.195C.335,12.992-.8,9.061.725,6.408A4.245,4.245,0,0,1,4.314,4.235c1.12-.021,2.177.754,2.862.754s1.969-.932,3.32-.8a4.051,4.051,0,0,1,3.172,1.72,3.922,3.922,0,0,0-1.874,3.3M9.611,2.769A3.82,3.82,0,0,0,10.513,0,3.887,3.887,0,0,0,7.958,1.314,3.629,3.629,0,0,0,7.038,4,3.216,3.216,0,0,0,9.611,2.769" transform="translate(1.94 0.329)" fill="#fff"/>
  </g>
</svg>
