<svg xmlns="http://www.w3.org/2000/svg" width="44" height="44" viewBox="0 0 44 44">
  <g id="ic" transform="translate(8 10.337)">
    <g id="그룹_5085" data-name="그룹 5085" transform="translate(2)">
      <rect id="BG" width="44" height="44" rx="22" transform="translate(-10 -10.337)" fill="#3ac87c"/>
      <path id="패스_6535" data-name="패스 6535" d="M19.153,5.447V1H1V21.754H19.153V14.342" transform="translate(0.964 0.663)" fill="none" stroke="#fff" stroke-width="1.4"/>
      <path id="패스_6536" data-name="패스 6536" d="M30.16,7.772c-.579-.579-2.027-.069-3.185,1.089l-6.243,6.315c-2.031,2.031-4.422,5.361-3.843,5.939s3.909-1.812,5.94-3.843l6.243-6.315C30.23,9.8,30.74,8.351,30.16,7.772Z" transform="translate(-4.689 -2.641)" fill="none" stroke="#fff" stroke-width="1.4"/>
      <line id="선_24" data-name="선 24" y1="1.148" x2="1.076" transform="translate(11.124 18.474)" fill="none" stroke="#fff" stroke-linecap="round" stroke-width="1.4"/>
      <path id="패스_6537" data-name="패스 6537" d="M36.676,10.22l2.8,2.8a.988.988,0,0,1,0,1.4l-3.494,3.494" transform="translate(-14.389 -4.001)" fill="none" stroke="#fff" stroke-width="1.4"/>
      <line id="선_25" data-name="선 25" x2="2.097" y2="2.097" transform="translate(15.694 12.884)" fill="none" stroke="#fff" stroke-width="1.4"/>
      <line id="선_26" data-name="선 26" y1="0.997" x2="0.997" transform="translate(25.471 4.134)" fill="none" stroke="#fff" stroke-width="1.4"/>
      <line id="선_27" data-name="선 27" x1="3.006" transform="translate(4.774 19)" fill="none" stroke="#fff" stroke-width="1.4"/>
      <line id="선_28" data-name="선 28" x2="4.509" transform="translate(4.774 4.669)" fill="none" stroke="#fff" stroke-width="1.4"/>
      <line id="선_29" data-name="선 29" x2="9.769" transform="translate(4.774 6.923)" fill="none" stroke="#fff" stroke-width="1.4"/>
      <line id="선_30" data-name="선 30" x2="9.769" transform="translate(4.774 9.178)" fill="none" stroke="#fff" stroke-width="1.4"/>
      <line id="선_31" data-name="선 31" x2="7.514" transform="translate(4.774 11.432)" fill="none" stroke="#fff" stroke-width="1.4"/>
      <line id="선_32" data-name="선 32" x2="6.011" transform="translate(4.774 13.686)" fill="none" stroke="#fff" stroke-width="1.4"/>
      <rect id="Path" width="28" height="28" transform="translate(-2 -2.337)" fill="none"/>
    </g>
  </g>
</svg>
